<svg xmlns="http://www.w3.org/2000/svg" version="1.1" xmlns:xlink="http://www.w3.org/1999/xlink" xmlns:svgjs="http://svgjs.com/svgjs" width="1628" height="881" preserveAspectRatio="none" viewBox="0 0 1628 881"><g mask="url(&quot;#SvgjsMask1676&quot;)" fill="none"><rect width="1628" height="881" x="0" y="0" fill="rgba(5, 25, 45, 1)"></rect><path d="M -345.2610288123054,564.5 C -304.46,534.3 -222.86,395.1 -141.26102881230545,413.5 C -59.66,431.9 -18.86,696.5 62.738971187694546,656.5 C 144.34,616.5 185.14,235.5 266.7389711876946,213.5 C 348.34,191.5 389.14,542.5 470.7389711876946,546.5 C 552.34,550.5 593.14,188.3 674.7389711876946,233.5 C 756.34,278.7 797.14,755.1 878.7389711876946,772.5 C 960.34,789.9 1001.14,332.5 1082.7389711876945,320.5 C 1164.34,308.5 1205.14,734.9 1286.7389711876945,712.5 C 1368.34,690.1 1422.49,216.3 1490.7389711876945,208.5 C 1558.99,200.7 1600.55,580.5 1628,673.5" stroke="rgba(120, 7, 220, 1)" stroke-width="2"></path></g><defs><mask id="SvgjsMask1676"><rect width="1628" height="881" fill="#ffffff"></rect></mask></defs></svg>