<svg xmlns="http://www.w3.org/2000/svg" version="1.1" xmlns:xlink="http://www.w3.org/1999/xlink" xmlns:svgjs="http://svgjs.com/svgjs" width="1628" height="881" preserveAspectRatio="none" viewBox="0 0 1628 881"><g mask="url(&quot;#SvgjsMask1586&quot;)" fill="none"><rect width="1628" height="881" x="0" y="0" fill="rgba(5, 25, 45, 1)"></rect><path d="M -372.66996878647234,786.5 C -318.27,644.3 -209.47,112.1 -100.66996878647235,75.5 C 8.13,38.9 62.53,552.1 171.33003121352766,603.5 C 280.13,654.9 334.53,351.5 443.33003121352766,332.5 C 552.13,313.5 606.53,512.5 715.3300312135276,508.5 C 824.13,504.5 878.53,261.3 987.3300312135276,312.5 C 1096.13,363.7 1150.53,810.1 1259.3300312135277,764.5 C 1368.13,718.9 1457.6,129.3 1531.3300312135277,84.5 C 1605.06,39.7 1608.67,449.3 1628,540.5" stroke="rgba(160, 20, 179, 0.58)" stroke-width="2"></path><path d="M -40.3795843628896,238.5 C 14.02,321.9 122.82,658.5 231.6204156371104,655.5 C 340.42,652.5 394.82,198.9 503.6204156371104,223.5 C 612.42,248.1 666.82,793.3 775.6204156371105,778.5 C 884.42,763.7 938.82,150.7 1047.6204156371105,149.5 C 1156.42,148.3 1210.82,731.7 1319.6204156371105,772.5 C 1428.42,813.3 1482.82,358.7 1591.6204156371105,353.5 C 1700.42,348.3 1856.34,764.9 1863.6204156371105,746.5 C 1870.9,728.1 1675.12,358.5 1628,261.5" stroke="rgba(160, 20, 179, 0.58)" stroke-width="2"></path><path d="M -274.58256466562386,580.5 C -220.18,529.5 -111.38,350.7 -2.5825646656238774,325.5 C 106.22,300.3 160.62,451.7 269.41743533437614,454.5 C 378.22,457.3 432.62,297.3 541.4174353343761,339.5 C 650.22,381.7 704.62,673.5 813.4174353343761,665.5 C 922.22,657.5 976.62,310.5 1085.417435334376,299.5 C 1194.22,288.5 1248.62,629.1 1357.417435334376,610.5 C 1466.22,591.9 1575.3,187.7 1629.417435334376,206.5 C 1683.53,225.3 1628.28,604.9 1628,704.5" stroke="rgba(160, 20, 179, 0.58)" stroke-width="2"></path><path d="M -52.81936429237362,305.5 C 1.58,380.7 110.38,675.1 219.18063570762638,681.5 C 327.98,687.9 382.38,318.9 491.1806357076264,337.5 C 599.98,356.1 654.38,759.5 763.1806357076264,774.5 C 871.98,789.5 926.38,447.5 1035.1806357076264,412.5 C 1143.98,377.5 1198.38,596.9 1307.1806357076264,599.5 C 1415.98,602.1 1470.38,428.1 1579.1806357076264,425.5 C 1687.98,422.9 1841.42,602.1 1851.1806357076264,586.5 C 1860.94,570.9 1672.64,395.3 1628,347.5" stroke="rgba(160, 20, 179, 0.58)" stroke-width="2"></path><path d="M -155.5132763991903,405.5 C -101.11,482.7 7.69,798.7 116.48672360080971,791.5 C 225.29,784.3 279.69,377.1 388.4867236008097,369.5 C 497.29,361.9 551.69,787.7 660.4867236008097,753.5 C 769.29,719.3 823.69,202.7 932.4867236008097,198.5 C 1041.29,194.3 1095.69,703.3 1204.4867236008097,732.5 C 1313.29,761.7 1367.69,383.7 1476.4867236008097,344.5 C 1585.29,305.3 1718.18,564.7 1748.4867236008097,536.5 C 1778.79,508.3 1652.1,270.1 1628,203.5" stroke="rgba(120, 7, 220, 1)" stroke-width="2"></path></g><defs><mask id="SvgjsMask1586"><rect width="1628" height="881" fill="#ffffff"></rect></mask></defs></svg>